{
  "accessors": [
    {
      "bufferView": 3,
      "componentType": 5126,
      "count": 1620,
      "max": [
        1.3566138744354248,
        6.5473575592041016,
        0.20088131725788116
      ],
      "min": [
        -1.3749020099639893,
        1.1094719171524048,
        -1.2771120071411133
      ],
      "type": "VEC3"
    },
    {
      "bufferView": 3,
      "byteOffset": 19440,
      "componentType": 5126,
      "count": 1620,
      "max": [
        0.99973058700561523,
        0.99840819835662842,
        0.99999189376831055
      ],
      "min": [
        -0.99973011016845703,
        -0.99539858102798462,
        -0.99960267543792725
      ],
      "type": "VEC3"
    },
    {
      "bufferView": 4,
      "componentType": 5126,
      "count": 1620,
      "max": [
        1,
        1,
        1,
        1
      ],
      "min": [
        1,
        1,
        1,
        1
      ],
      "type": "VEC4"
    },
    {
      "bufferView": 2,
      "componentType": 5126,
      "count": 1620,
      "max": [
        3.99609375,
        0.8671875
      ],
      "min": [
        0.32177734375,
        0.0166015625
      ],
      "type": "VEC2"
    },
    {
      "bufferView": 2,
      "byteOffset": 12960,
      "componentType": 5126,
      "count": 1620,
      "max": [
        31.99951171875,
        -30.99951171875
      ],
      "min": [
        31.99951171875,
        -30.99951171875
      ],
      "type": "VEC2"
    },
    {
      "bufferView": 1,
      "componentType": 5125,
      "count": 7857,
      "max": [
        1619
      ],
      "min": [
        0
      ],
      "type": "SCALAR"
    },
    {
      "bufferView": 5,
      "componentType": 5126,
      "count": 13,
      "max": [
        1,
        0.097599327564239502,
        0.40181428194046021,
        0,
        0.10084526240825653,
        1,
        0.77286654710769653,
        0,
        0.39637568593025208,
        0.76513057947158813,
        1,
        0,
        1.3295524120330811,
        4.7374715805053711,
        0.7708088755607605,
        1
      ],
      "min": [
        -0.98804980516433716,
        -0.16570895910263062,
        -0.30063620209693909,
        0,
        -0.21745684742927551,
        -0.99338638782501221,
        -0.016690485179424286,
        0,
        -0.11656729131937027,
        -0.22619085013866425,
        -0.99262648820877075,
        0,
        -0.75845479965209961,
        -5.379143238067627,
        -5.1065883636474609,
        1
      ],
      "type": "MAT4"
    },
    {
      "bufferView": 0,
      "componentType": 5123,
      "count": 1620,
      "max": [
        12,
        12,
        12,
        11
      ],
      "min": [
        1,
        1,
        1,
        1
      ],
      "type": "VEC4"
    },
    {
      "bufferView": 4,
      "byteOffset": 25920,
      "componentType": 5126,
      "count": 1620,
      "max": [
        1,
        0.49944165349006653,
        0.27408957481384277,
        0.12298596650362015
      ],
      "min": [
        0.36028513312339783,
        0,
        0,
        0
      ],
      "type": "VEC4"
    }
  ],
  "asset": {
    "extras": {
      "author": "Ring1 (https://sketchfab.com/Ring1)",
      "license": "CC-BY-4.0 (http://creativecommons.org/licenses/by/4.0/)",
      "source": "https://sketchfab.com/3d-models/cape-61e185ae00b640258071c581ab40f749",
      "title": "Cape"
    },
    "generator": "Sketchfab-7.91.0",
    "version": "2.0"
  },
  "bufferViews": [
    {
      "buffer": 0,
      "byteLength": 12960,
      "byteOffset": 0,
      "byteStride": 8,
      "name": "shortBufferViews",
      "target": 34962
    },
    {
      "buffer": 0,
      "byteLength": 31428,
      "byteOffset": 12960,
      "name": "floatBufferViews",
      "target": 34963
    },
    {
      "buffer": 0,
      "byteLength": 25920,
      "byteOffset": 44388,
      "byteStride": 8,
      "name": "floatBufferViews",
      "target": 34962
    },
    {
      "buffer": 0,
      "byteLength": 38880,
      "byteOffset": 70308,
      "byteStride": 12,
      "name": "floatBufferViews",
      "target": 34962
    },
    {
      "buffer": 0,
      "byteLength": 51840,
      "byteOffset": 109188,
      "byteStride": 16,
      "name": "floatBufferViews",
      "target": 34962
    },
    {
      "buffer": 0,
      "byteLength": 832,
      "byteOffset": 161028,
      "byteStride": 64,
      "name": "floatBufferViews"
    }
  ],
  "buffers": [
    {
      "byteLength": 161860,
      "uri": "scene.bin"
    }
  ],
  "materials": [
    {
      "doubleSided": true,
      "emissiveFactor": [
        0,
        0,
        0
      ],
      "name": "Scene_-_Root",
      "pbrMetallicRoughness": {
        "baseColorFactor": [
          1,
          1,
          1,
          1
        ],
        "metallicFactor": 0.51391006097560976,
        "roughnessFactor": 0.43730945121951215
      }
    }
  ],
  "meshes": [
    {
      "primitives": [
        {
          "attributes": {
            "COLOR_0": 2,
            "JOINTS_0": 7,
            "NORMAL": 1,
            "POSITION": 0,
            "TEXCOORD_0": 3,
            "TEXCOORD_1": 4,
            "WEIGHTS_0": 8
          },
          "indices": 5,
          "material": 0,
          "mode": 4
        }
      ]
    }
  ],
  "nodes": [
    {
      "children": [
        1
      ],
      "name": "RootNode (gltf orientation matrix)",
      "rotation": [
        -0.70710678118654746,
        -0,
        -0,
        0.70710678118654757
      ]
    },
    {
      "children": [
        2
      ],
      "name": "RootNode (model correction matrix)"
    },
    {
      "children": [
        3
      ],
      "name": "root"
    },
    {
      "children": [
        4
      ],
      "matrix": [
        1,
        0,
        0,
        0,
        0,
        2.2204460492503131e-16,
        1,
        0,
        0,
        -1,
        2.2204460492503131e-16,
        0,
        0,
        0,
        0,
        1
      ],
      "name": "GLTF_SceneRootNode"
    },
    {
      "children": [
        5
      ],
      "matrix": [
        1,
        0,
        0,
        0,
        0,
        1,
        0,
        0,
        0,
        0,
        1,
        0,
        0.57600492238998413,
        5.0438246726989746,
        -0.71025097370147705,
        1
      ],
      "name": "Armature_13"
    },
    {
      "children": [
        6,
        8,
        7
      ],
      "name": "GLTF_created_0"
    },
    {
      "children": [
        9,
        11,
        13,
        15,
        17,
        19
      ],
      "name": "GLTF_created_0_rootJoint"
    },
    {
      "name": "cape_12"
    },
    {
      "mesh": 0,
      "name": "",
      "skin": 0
    },
    {
      "children": [
        10
      ],
      "name": "Bone_1"
    },
    {
      "name": "Bone.001_0",
      "rotation": [
        -0.080657094717025757,
        0.90028810501098633,
        0.42708423733711243,
        0.023977573961019516
      ],
      "scale": [
        0.99999994039535522,
        0.99999994039535522,
        1
      ],
      "translation": [
        0,
        1,
        0
      ]
    },
    {
      "children": [
        12
      ],
      "name": "Bone.004_3",
      "translation": [
        -0.6968916654586792,
        -0.59823817014694214,
        -0.060557890683412552
      ]
    },
    {
      "name": "Bone.005_2",
      "rotation": [
        0.049764774739742279,
        0.99691355228424072,
        0.013719265349209309,
        0.059149473905563354
      ],
      "scale": [
        1,
        1.0000001192092896,
        1
      ],
      "translation": [
        0,
        1,
        0
      ]
    },
    {
      "children": [
        14
      ],
      "name": "Bone.002_5",
      "rotation": [
        -0.97198343276977539,
        0.011944443918764591,
        -0.20529930293560028,
        0.11383216828107834
      ],
      "scale": [
        0.99999994039535522,
        1,
        1
      ]
    },
    {
      "name": "Bone.003_4",
      "rotation": [
        -0.057379227131605148,
        -0.14978659152984619,
        -0.0044399495236575603,
        0.98704200983047485
      ],
      "scale": [
        0.99999994039535522,
        0.99999988079071045,
        0.99999994039535522
      ],
      "translation": [
        -1.3038516044616699e-08,
        1.0829653739929199,
        -1.4901161193847656e-08
      ]
    },
    {
      "children": [
        16
      ],
      "name": "Bone.006_7",
      "rotation": [
        -0.97198349237442017,
        0.011944503523409367,
        -0.20529913902282715,
        0.11383198201656342
      ],
      "scale": [
        0.99999994039535522,
        0.99999994039535522,
        0.99999994039535522
      ],
      "translation": [
        -0.6968916654586792,
        -0.59823817014694214,
        -0.060557890683412552
      ]
    },
    {
      "name": "Bone.007_6",
      "rotation": [
        -0.057379215955734253,
        -0.14978650212287903,
        -0.0044399267062544823,
        0.98704200983047485
      ],
      "scale": [
        1,
        0.99999988079071045,
        1
      ],
      "translation": [
        7.4505805969238281e-09,
        1.0829654932022095,
        -2.9802322387695312e-08
      ]
    },
    {
      "children": [
        18
      ],
      "name": "Bone.008_9",
      "rotation": [
        0.0083455629646778107,
        -1.6747209841128097e-08,
        0.0034799680579453707,
        0.99995911121368408
      ],
      "scale": [
        1,
        0.99999994039535522,
        0.99999994039535522
      ],
      "translation": [
        -1.402178168296814,
        -0.21715863049030304,
        0.1158941239118576
      ]
    },
    {
      "name": "Bone.011_8",
      "rotation": [
        0.071570806205272675,
        -0.95354944467544556,
        -0.25884285569190979,
        0.13646060228347778
      ],
      "scale": [
        1,
        1.0000003576278687,
        1
      ],
      "translation": [
        -1.1122210707981139e-08,
        1.0526914596557617,
        2.9685907065868378e-09
      ]
    },
    {
      "children": [
        20
      ],
      "name": "Bone.009_11",
      "rotation": [
        -0.97198349237442017,
        0.011944443918764591,
        -0.20529931783676147,
        0.11383216828107834
      ],
      "scale": [
        0.99999988079071045,
        1,
        1
      ],
      "translation": [
        -1.402178168296814,
        -0.21715863049030304,
        0.1158941239118576
      ]
    },
    {
      "name": "Bone.010_10",
      "rotation": [
        -0.057379212230443954,
        -0.14978659152984619,
        -0.0044399527832865715,
        0.98704200983047485
      ],
      "scale": [
        0.99999988079071045,
        0.99999988079071045,
        0.99999988079071045
      ],
      "translation": [
        2.6077032089233398e-08,
        1.0829653739929199,
        3.7252902984619141e-08
      ]
    }
  ],
  "scene": 0,
  "scenes": [
    {
      "name": "OSG_Scene",
      "nodes": [
        0
      ]
    }
  ],
  "skins": [
    {
      "inverseBindMatrices": 6,
      "joints": [
        6,
        9,
        10,
        11,
        12,
        13,
        14,
        15,
        16,
        17,
        18,
        19,
        20
      ],
      "skeleton": 6
    }
  ]
}

